<svg width="42" height="46" viewBox="0 0 42 46" fill="none" xmlns="http://www.w3.org/2000/svg">
<g clip-path="url(#clip0_32_307)">
<path d="M14.3477 32.8652C14.4064 32.8653 14.4445 32.883 14.4766 32.915L14.5137 32.9697C14.522 32.9906 14.5263 33.0148 14.5264 33.0439V37.9131C14.5264 37.9425 14.5221 37.9673 14.5137 37.9883L14.4766 38.043C14.4445 38.0749 14.4063 38.0918 14.3477 38.0918H12.0283C12.0826 37.9801 12.1347 37.8629 12.1846 37.7402L12.1855 37.7383C12.2853 37.485 12.368 37.1795 12.4346 36.8252C12.5012 36.4695 12.5525 36.0468 12.5889 35.5586L12.5879 35.5576C12.6315 35.0602 12.6543 34.4568 12.6543 33.748V32.8652H14.3477Z" fill="white"/>
<path d="M12.0674 36.5156L12.0215 36.7881C12.0443 36.6667 12.0639 36.5367 12.083 36.3984C12.0775 36.4381 12.0732 36.4773 12.0674 36.5156Z" fill="white"/>
<path d="M20.3311 36.1982H18.5566L19.4307 33.7852L20.3311 36.1982Z" fill="white"/>
<path d="M12.2012 35.1553L12.1729 35.5439C12.1882 35.3698 12.2001 35.1819 12.21 34.9805C12.207 35.0399 12.2046 35.0982 12.2012 35.1553Z" fill="white"/>
<path d="M8.13086 35.5166C8.5831 35.5166 8.90938 35.6419 9.13672 35.8691L9.14062 35.873C9.37708 36.0976 9.5 36.3925 9.5 36.7773C9.5 37.1951 9.37436 37.5075 9.13867 37.7373L9.13672 37.7393C8.90939 37.9666 8.58309 38.0918 8.13086 38.0918H7.03223V35.5166H8.13086Z" fill="white"/>
<path d="M8.07715 32.8652C8.3842 32.8653 8.61461 32.9606 8.78809 33.1396L8.79004 33.1426C8.96848 33.3211 9.06738 33.5691 9.06738 33.9102C9.06733 34.2512 8.96847 34.4993 8.79004 34.6777L8.78809 34.6797C8.61545 34.858 8.38208 34.954 8.06641 34.9541H7.03223V32.8652H8.07715Z" fill="white"/>
<path d="M9.24609 34.1816C9.24404 34.1943 9.23966 34.2064 9.2373 34.2188C9.24063 34.2013 9.24533 34.1839 9.24805 34.166L9.24609 34.1816Z" fill="white"/>
<path d="M30.04 38.1836C30.004 38.2197 29.964 38.2476 29.9189 38.2656L29.918 38.2646C29.9632 38.2466 30.0038 38.2198 30.04 38.1836Z" fill="white"/>
<path d="M13.8936 19.4775C13.9795 19.4775 14.0438 19.5047 14.0986 19.5596C14.1534 19.6143 14.1806 19.6787 14.1807 19.7646V25.9326C14.1806 26.0185 14.1534 26.0829 14.0986 26.1377C14.0437 26.1925 13.9794 26.2197 13.8936 26.2197H10.8721C10.9355 26.115 10.9972 26.0008 11.0557 25.877L11.0566 25.875C11.1876 25.5898 11.2992 25.2208 11.3945 24.7734C11.4905 24.3228 11.5678 23.7656 11.626 23.1045C11.6844 22.4403 11.7129 21.6331 11.7129 20.6846V19.4775H13.8936Z" fill="white"/>
<path d="M10.9727 19.3457C11.0126 19.3638 11.0487 19.3848 11.0801 19.4102C11.0645 19.3975 11.0471 19.3868 11.0293 19.376L10.9727 19.3457Z" fill="white"/>
<path d="M20.166 20.8301C20.4297 20.8301 20.6889 20.8911 20.9443 21.0156C21.1982 21.1393 21.4253 21.32 21.625 21.5596L21.626 21.5615C21.8239 21.7923 21.9865 22.0801 22.1094 22.4287C22.2304 22.7715 22.292 23.1637 22.292 23.6064C22.2919 24.0493 22.2304 24.4413 22.1094 24.7842C21.9866 25.1321 21.8245 25.4235 21.626 25.6621C21.4265 25.8948 21.1994 26.0719 20.9443 26.1963C20.6888 26.3208 20.4297 26.3818 20.166 26.3818C19.9025 26.3818 19.6434 26.3208 19.3877 26.1963C19.1963 26.1029 19.0204 25.9801 18.8604 25.8262L18.7061 25.6621C18.5076 25.4235 18.3456 25.1321 18.2227 24.7842C18.1016 24.4413 18.0401 24.0493 18.04 23.6064C18.04 23.1637 18.1017 22.7715 18.2227 22.4287C18.3457 22.08 18.5082 21.7923 18.7061 21.5615L18.707 21.5596C18.9067 21.3199 19.1339 21.1393 19.3877 21.0156C19.6434 20.8911 19.9025 20.8301 20.166 20.8301Z" fill="white"/>
<path d="M24.9189 26.0049C24.9173 26.0173 24.9132 26.0291 24.9111 26.041C24.914 26.0245 24.918 26.0078 24.9199 25.9902L24.9189 26.0049Z" fill="white"/>
<path fill-rule="evenodd" clip-rule="evenodd" d="M41.1035 19.7539V45.5107H0V19.7559L20.5 0L41.1035 19.7539ZM19.3965 32.0869L17.3467 37.7363C17.3089 37.8388 17.2481 37.9245 17.1602 37.9961C17.0888 38.054 16.985 38.0918 16.8311 38.0918H15.5752V32.8652H16.2783V32.249H11.2803V32.8652H11.8584C11.9107 32.8652 11.9475 32.8817 11.9814 32.9189L11.9883 32.9258C12.0233 32.9609 12.038 32.997 12.0381 33.0439V33.748C12.0381 34.4513 12.0162 35.0437 11.9736 35.5264V35.5293C11.938 36.0074 11.8874 36.4142 11.8242 36.751C11.7611 37.0879 11.6851 37.3665 11.5977 37.5889C11.5233 37.772 11.442 37.9389 11.3594 38.0918H10.1436V38.5498L10.1602 38.5879L10.8643 40.2109L10.916 40.332H11.4492L11.1895 38.9053L11.1885 38.9004L11.1807 38.8389C11.1791 38.7928 11.1918 38.7698 11.2031 38.7559C11.2107 38.7512 11.2314 38.7405 11.2754 38.7305C11.3348 38.7169 11.4198 38.709 11.5342 38.709H15.2676C15.3815 38.709 15.466 38.717 15.5254 38.7305C15.5684 38.7403 15.5895 38.751 15.5977 38.7559C15.6131 38.7747 15.6311 38.8111 15.6123 38.9004L15.6113 38.9053L15.3525 40.332H15.8857L15.9375 40.2109L16.5879 38.709H18.4922V38.0918H17.875L18.3564 36.7607H20.5342L20.9717 37.9268C21.0556 38.1559 21.1576 38.3469 21.2842 38.4824L21.2891 38.4873C21.448 38.6464 21.67 38.709 21.917 38.709H22.8994C23.0413 38.7824 23.2039 38.8164 23.3809 38.8164C23.5263 38.8164 23.6693 38.785 23.8076 38.7246C23.9614 38.6572 24.0946 38.5418 24.21 38.3936L24.209 38.3926C24.3328 38.2354 24.4402 38.0369 24.5312 37.8018L24.5303 37.8008C24.6303 37.5533 24.7133 37.2446 24.7793 36.8779C24.8458 36.5082 24.8971 36.0672 24.9336 35.5576C24.9701 35.0397 24.9883 34.4363 24.9883 33.748V32.8652H26.6816C26.7403 32.8653 26.7784 32.883 26.8105 32.915C26.8428 32.9473 26.8603 32.9856 26.8604 33.0439V37.9131C26.8604 37.9716 26.8428 38.0107 26.8105 38.043C26.7785 38.075 26.7402 38.0918 26.6816 38.0918H26.1025V38.709H28.6123V38.0918H27.9092V32.8652H28.6123V32.249H23.6143V32.8652H24.1924C24.2446 32.8652 24.2815 32.8817 24.3154 32.9189L24.3223 32.9258C24.3572 32.9607 24.371 32.9968 24.3711 33.0439V33.748C24.3711 34.7321 24.3354 35.5163 24.2646 36.1035C24.1931 36.6898 24.1082 37.1339 24.0127 37.4414C23.9131 37.7543 23.8175 37.9233 23.7422 37.9941C23.7401 37.9961 23.7374 37.9972 23.7354 37.999C23.7395 37.9706 23.7432 37.9419 23.7432 37.9131C23.7431 37.7558 23.6888 37.614 23.5771 37.502L23.5762 37.501C23.4643 37.3895 23.3225 37.335 23.165 37.335C22.9727 37.335 22.8008 37.3994 22.666 37.5342L22.6611 37.54C22.5377 37.6737 22.4776 37.8385 22.4775 38.0215C22.4775 38.0452 22.4795 38.0687 22.4814 38.0918H22.3496C22.2605 38.0917 22.2099 38.0664 22.1748 38.0293C22.1138 37.9554 22.0721 37.8895 22.0459 37.832L19.8916 32.0869H19.3965ZM5.22559 32.249V32.8652H5.80469C5.86332 32.8653 5.90146 32.883 5.93359 32.915L5.9707 32.9697C5.97906 32.9906 5.98337 33.0148 5.9834 33.0439V37.9131C5.9834 37.9425 5.97915 37.9673 5.9707 37.9883L5.93359 38.043C5.90149 38.075 5.86323 38.0918 5.80469 38.0918H5.22559V38.709H8.13086C8.93672 38.709 9.56911 38.5473 9.9834 38.1826C10.3965 37.8183 10.6035 37.344 10.6035 36.7773C10.6035 36.5723 10.5758 36.3835 10.5166 36.2139C10.468 36.0479 10.3981 35.899 10.3047 35.7715C10.2154 35.6498 10.112 35.5465 9.99512 35.4619C9.88309 35.374 9.76634 35.3006 9.64355 35.2432C9.55102 35.1973 9.45335 35.1596 9.35352 35.127C9.38466 35.1099 9.41694 35.0948 9.44727 35.0762L9.4502 35.0742C9.632 34.9585 9.79337 34.8039 9.93555 34.6143C10.0989 34.3966 10.1699 34.1191 10.1699 33.8018C10.1699 33.597 10.1236 33.3981 10.0322 33.207C9.93821 33.0105 9.79743 32.8421 9.61621 32.7021C9.43433 32.5617 9.2129 32.4544 8.95703 32.377C8.69605 32.2908 8.40123 32.2491 8.07715 32.249H5.22559ZM29.1914 32.249V32.8652H29.7695C29.8283 32.8652 29.8673 32.8829 29.8994 32.915C29.9314 32.9471 29.9482 32.9854 29.9482 33.0439V37.9131C29.9482 37.9718 29.9316 38.0108 29.8994 38.043C29.8673 38.0751 29.8283 38.0918 29.7695 38.0918H29.1914V38.709H31.7012V38.0918H30.998V37.9297L34.1689 34.0381V37.9131C34.1689 37.9718 34.1513 38.0108 34.1191 38.043C34.0871 38.075 34.0487 38.0917 33.9902 38.0918H33.4111V38.709H35.9209V38.0918H35.2178V32.8652H35.9209V32.249H33.4111V32.8652H33.9902C34.0488 32.8653 34.087 32.8829 34.1191 32.915C34.1512 32.9471 34.1689 32.9854 34.1689 33.0439V33.0811L30.998 36.9717V32.8652H31.7012V32.249H29.1914ZM10.1768 18.8613V19.4775H10.5938C10.8135 19.4776 10.9237 19.5304 10.9775 19.5879L10.9824 19.5928C11.0416 19.6523 11.0967 19.7807 11.0967 20.0352V20.6846C11.0967 21.6264 11.0715 22.4182 11.0215 23.0605C10.9715 23.7038 10.8969 24.2379 10.7988 24.665L10.7979 24.667C10.7062 25.09 10.596 25.4222 10.4697 25.668L10.4678 25.6719C10.3603 25.8927 10.2433 26.0735 10.1211 26.2197H8.77051V26.6748L9.64746 28.8379H10.2324L9.97949 27.2539L9.97852 27.249C9.96805 27.1912 9.96457 27.1341 9.96875 27.0771C9.97742 27.0339 9.99514 26.9945 10.0234 26.957C10.0347 26.9451 10.0497 26.9327 10.0693 26.9199L10.1562 26.877C10.2271 26.8524 10.334 26.8359 10.4854 26.8359H14.8672C15.0129 26.8359 15.1178 26.8523 15.1895 26.8779C15.2644 26.9046 15.3059 26.9341 15.3281 26.957C15.3543 26.9919 15.3685 27.0266 15.3721 27.0654V27.0742L15.374 27.083C15.3841 27.1384 15.3841 27.1934 15.374 27.249L15.373 27.2539L15.1201 28.8379H15.7051L16.582 26.6748V26.2197H15.2842V19.4775H16.2031V18.8613H10.1768ZM20.166 20.2686C19.7218 20.2686 19.3012 20.3524 18.9072 20.5225C18.5158 20.6912 18.1727 20.9262 17.8799 21.2266C17.5872 21.527 17.3574 21.8807 17.1895 22.2852C17.0198 22.6936 16.9365 23.1352 16.9365 23.6064C16.9366 24.0777 17.02 24.5184 17.1895 24.9268C17.3573 25.331 17.5873 25.6849 17.8799 25.9854C18.1726 26.2857 18.5158 26.5207 18.9072 26.6895C19.3012 26.8595 19.7218 26.9443 20.166 26.9443C20.6105 26.9443 21.0309 26.8595 21.4248 26.6895C21.8162 26.5207 22.1594 26.2857 22.4521 25.9854C22.7447 25.6849 22.9747 25.331 23.1426 24.9268C23.3121 24.5184 23.3955 24.0777 23.3955 23.6064C23.3955 23.1352 23.3122 22.6936 23.1426 22.2852C22.9747 21.8807 22.7448 21.527 22.4521 21.2266C22.1594 20.9262 21.8163 20.6912 21.4248 20.5225C21.0309 20.3524 20.6105 20.2686 20.166 20.2686ZM30.2178 20.376H29.9492L29.8916 20.4785L27.8975 24.0166L25.8018 20.4746L25.7432 20.376H25.0322H24.9424H23.9688V20.9932H24.5469C24.6058 20.9932 24.6446 21.0099 24.6768 21.042C24.7088 21.0741 24.7266 21.1131 24.7266 21.1719V25.8779C24.7266 26.0323 24.6905 26.1112 24.6553 26.1504C24.6236 26.1854 24.5646 26.2197 24.4395 26.2197H23.9688V26.8359H26.0459V26.2197H25.3428V21.6846L27.4053 25.1689L27.4629 25.2666H27.9102L27.9678 25.165L29.9199 21.7139V26.041C29.9198 26.0994 29.9023 26.1377 29.8701 26.1699C29.8379 26.2021 29.7996 26.2197 29.7412 26.2197H29.1621V26.8359H31.6729V26.2197H30.9688V20.9932H31.6729V20.376H30.3203H30.2178Z" fill="#5982FF"/>
<rect x="4" y="18" width="33" height="23" fill="#5982FF"/>
</g>
<defs>
<clipPath id="clip0_32_307">
<rect width="42" height="46" fill="white"/>
</clipPath>
</defs>
</svg>
