<?xml version="1.0" encoding="UTF-8"?> <svg xmlns="http://www.w3.org/2000/svg" width="1478" height="952" viewBox="0 0 1478 952" fill="none"><path d="M394.607 257C396.332 266.579 398.057 276.157 399.782 286.171L419.188 401.551C426.088 442.913 433.42 484.711 440.319 526.073C445.925 560.034 451.962 593.994 457.568 627.955C458 630.567 458.862 631.438 461.449 631.438H495.086C500.261 661.045 505.005 690.217 510.18 719.823H467.918C465.762 708.068 463.606 695.877 461.881 684.121C460.156 672.365 460.156 671.93 448.081 671.93H259.63C255.749 671.93 254.024 672.801 253.593 677.154C251.437 691.087 248.849 705.455 246.262 719.823H204C209.175 690.217 213.919 661.045 219.094 631.438H251.867C254.886 631.438 256.18 630.567 257.042 627.084C264.804 580.932 272.998 534.781 280.761 488.629C288.092 445.525 295.423 402.421 302.754 359.753C307.929 325.357 313.966 291.396 319.572 257H394.607ZM685.693 257.437C709.411 395.021 732.699 533.04 756.417 671.931H716.312C715.449 671.931 713.724 670.189 713.724 668.883C711.567 655.821 708.98 642.76 706.824 629.263C701.649 599.656 696.906 569.614 691.731 540.007C691.3 537.395 690.006 536.524 687.419 536.959C661.113 539.136 634.376 541.749 607.64 543.926C604.621 543.926 603.327 544.796 602.896 548.279C597.289 581.805 591.683 615.33 586.077 648.42C584.783 656.257 583.49 664.094 582.196 671.931H539.935L610.658 257.437H685.693ZM951.34 257.437C975.489 395.021 999.207 533.04 1022.49 671.931H983.683C981.095 671.931 979.801 671.06 979.37 668.448C975.058 641.454 970.315 614.895 965.571 587.9C959.103 549.586 952.634 511.271 946.165 472.956C938.834 429.852 931.503 373.687 924.172 330.583C921.153 312.732 918.134 294.445 914.685 276.158C914.684 275.723 914.253 275.288 913.391 274.853C912.097 281.819 910.804 288.349 909.941 295.315C903.473 332.324 897.435 381.959 890.967 418.968L872.423 528.687C865.954 566.566 859.486 604.881 853.018 643.195C851.724 651.903 849.999 660.175 848.705 668.883C848.705 670.189 846.98 671.931 846.117 671.931H806.013C829.3 533.476 853.018 395.021 876.305 257.437H951.34ZM1115.21 443.349H1120.39C1134.62 443.784 1149.28 443.348 1163.51 445.09C1210.08 450.75 1247.17 486.452 1254.93 533.039C1255.8 539.135 1256.66 545.231 1257.52 551.326L1257.09 564.388C1256.23 570.048 1255.36 575.708 1254.5 581.804C1247.17 627.084 1211.81 662.351 1167.39 669.317C1158.77 670.624 1150.57 671.494 1141.95 671.494C1120.82 671.93 1099.69 671.494 1078.56 671.494H1073.38V257H1115.21V443.349ZM1140.65 483.84C1132.03 483.404 1123.4 483.84 1114.78 483.84L1115.21 631.874C1129.01 631.439 1142.38 631.873 1155.75 630.132C1181.62 626.649 1200.17 612.716 1208.79 586.593C1213.53 571.789 1214.83 556.55 1211.81 541.312C1207.5 513.882 1193.27 494.725 1165.67 486.888C1157.47 484.711 1149.28 483.84 1140.65 483.84ZM298.01 631.003H416.17L357.521 273.545H356.658L298.01 631.003ZM611.521 500.821L683.969 494.291C671.894 424.628 660.251 342.773 648.607 273.546H647.744L611.521 500.821Z" fill="white"></path></svg> 