<?xml version="1.0" encoding="UTF-8"?> <svg xmlns="http://www.w3.org/2000/svg" width="342" height="378" viewBox="0 0 342 378" fill="none"><path data-figma-bg-blur-radius="10.2954" d="M340.167 376H1.93652V165.025L170.623 2L340.167 165.026V376Z" fill="white" fill-opacity="0.01" stroke="white" stroke-width="2.10342"></path><path d="M89.9959 221.725V220.211H98.7037C99.8144 218.999 100.824 217.459 101.733 215.591C102.692 213.724 103.5 211.275 104.156 208.246C104.863 205.167 105.393 201.356 105.746 196.812C106.1 192.268 106.276 186.69 106.276 180.077V175.534C106.276 173.615 105.872 172.253 105.064 171.445C104.307 170.637 103.071 170.233 101.354 170.233H99.8397V168.719H139.216V170.233H132.779V220.211H141.866V221.725L136.187 235.734H134.673L136.187 226.269C136.288 225.713 136.288 225.158 136.187 224.603C136.136 224.047 135.934 223.543 135.581 223.088C135.228 222.684 134.698 222.356 133.991 222.104C133.284 221.851 132.376 221.725 131.265 221.725H100.597C99.436 221.725 98.5019 221.851 97.7954 222.104C97.1391 222.356 96.634 222.684 96.281 223.088C95.9275 223.543 95.7003 224.047 95.5994 224.603C95.5487 225.158 95.5741 225.713 95.675 226.269L97.1893 235.734H95.675L89.9959 221.725ZM124.45 220.211C125.409 220.211 126.217 219.882 126.873 219.226C127.529 218.57 127.857 217.762 127.857 216.803V173.641C127.857 172.682 127.529 171.874 126.873 171.218C126.217 170.561 125.409 170.233 124.45 170.233H107.791V180.077C107.791 186.69 107.589 192.294 107.185 196.888C106.781 201.482 106.251 205.319 105.595 208.398C104.939 211.477 104.181 213.951 103.323 215.819C102.465 217.636 101.556 219.1 100.597 220.211H124.45ZM168.345 222.482C165.418 222.482 162.666 221.927 160.092 220.816C157.517 219.706 155.271 218.166 153.352 216.197C151.434 214.228 149.92 211.906 148.809 209.231C147.698 206.555 147.143 203.653 147.143 200.522C147.143 197.393 147.698 194.49 148.809 191.815C149.92 189.139 151.434 186.817 153.352 184.848C155.271 182.879 157.517 181.339 160.092 180.229C162.666 179.118 165.418 178.563 168.345 178.563C171.274 178.563 174.025 179.118 176.599 180.229C179.174 181.339 181.42 182.879 183.339 184.848C185.257 186.817 186.771 189.139 187.882 191.815C188.993 194.49 189.548 197.393 189.548 200.522C189.548 203.653 188.993 206.555 187.882 209.231C186.771 211.906 185.257 214.228 183.339 216.197C181.42 218.166 179.174 219.706 176.599 220.816C174.025 221.927 171.274 222.482 168.345 222.482ZM168.345 221.347C170.415 221.347 172.435 220.867 174.403 219.908C176.372 218.948 178.114 217.586 179.628 215.819C181.143 214.001 182.355 211.805 183.263 209.231C184.172 206.656 184.626 203.753 184.626 200.522C184.626 197.292 184.172 194.389 183.263 191.815C182.355 189.24 181.143 187.069 179.628 185.302C178.114 183.485 176.372 182.096 174.403 181.137C172.435 180.178 170.415 179.699 168.345 179.699C166.276 179.699 164.257 180.178 162.288 181.137C160.319 182.096 158.577 183.485 157.063 185.302C155.548 187.069 154.337 189.24 153.428 191.815C152.519 194.389 152.065 197.292 152.065 200.522C152.065 203.753 152.519 206.656 153.428 209.231C154.337 211.805 155.548 214.001 157.063 215.819C158.577 217.586 160.319 218.948 162.288 219.908C164.257 220.867 166.276 221.347 168.345 221.347ZM196.357 220.211H198.25C200.522 220.211 201.658 218.948 201.658 216.424V183.485C201.658 182.727 201.405 182.096 200.901 181.592C200.396 181.087 199.765 180.835 199.007 180.835H196.357V179.32H206.58L222.482 206.202L237.626 179.32H247.471V180.835H242.549V220.211H247.471V221.725H232.704V220.211H235.355C236.112 220.211 236.743 219.958 237.248 219.453C237.752 218.948 238.005 218.317 238.005 217.56V181.97L221.724 210.745H220.21L203.172 181.97V220.211H208.094V221.725H196.357V220.211ZM65.1904 303.299H67.8408C68.598 303.299 69.2289 303.047 69.734 302.542C70.2386 302.037 70.4912 301.406 70.4912 300.649V266.573C70.4912 265.816 70.2386 265.185 69.734 264.68C69.2289 264.175 68.598 263.923 67.8408 263.923H65.1904V262.408H83.7426C85.9133 262.408 87.8318 262.686 89.4978 263.242C91.1633 263.746 92.5519 264.428 93.6625 265.286C94.7732 266.144 95.606 267.154 96.1613 268.315C96.7166 269.476 96.9941 270.662 96.9941 271.874C96.9941 273.893 96.5401 275.509 95.6313 276.72C94.7225 277.932 93.7128 278.891 92.6021 279.598C91.2896 280.405 89.8508 280.986 88.2862 281.339V281.718C90.4568 281.869 92.4003 282.374 94.117 283.232C94.8741 283.586 95.606 284.04 96.3129 284.595C97.0194 285.1 97.6503 285.731 98.2057 286.488C98.761 287.246 99.19 288.154 99.4933 289.214C99.8463 290.224 100.023 291.385 100.023 292.698C100.023 296.282 98.7361 299.21 96.1613 301.481C93.6372 303.703 89.6241 304.813 84.1215 304.813H65.1904V303.299ZM84.1215 303.299C87.5539 303.299 90.2296 302.34 92.1482 300.421C94.117 298.503 95.1013 295.929 95.1013 292.698C95.1013 289.669 94.117 287.22 92.1482 285.352C90.2296 283.434 87.5539 282.475 84.1215 282.475H75.0343V303.299H84.1215ZM83.6671 281.339C86.1912 281.339 88.2102 280.557 89.725 278.992C91.2896 277.427 92.0721 275.307 92.0721 272.631C92.0721 269.956 91.2896 267.835 89.725 266.27C88.2102 264.706 86.2165 263.923 83.7426 263.923H75.0343V281.339H83.6671ZM99.6092 304.813V303.299H107.56C108.317 301.987 109.024 300.522 109.68 298.907C110.337 297.241 110.892 295.197 111.346 292.774C111.801 290.35 112.154 287.447 112.406 284.065C112.709 280.632 112.861 276.443 112.861 271.495V266.573C112.861 265.867 112.608 265.261 112.103 264.756C111.598 264.201 110.967 263.923 110.21 263.923H107.56V262.408H139.742V263.923H134.82V303.299H142.393V304.813L137.471 316.172H136.335L137.849 307.842C138.051 306.883 137.9 306.126 137.395 305.571C136.89 305.066 135.779 304.813 134.063 304.813H107.939C106.222 304.813 105.111 305.066 104.607 305.571C104.102 306.126 103.95 306.883 104.152 307.842L105.667 316.172H104.531L99.6092 304.813ZM127.626 303.299C128.384 303.299 129.015 303.047 129.52 302.542C130.024 302.037 130.277 301.406 130.277 300.649V266.573C130.277 265.816 130.024 265.185 129.52 264.68C129.015 264.175 128.384 263.923 127.626 263.923H114.375V271.495C114.375 276.443 114.223 280.632 113.921 284.065C113.669 287.447 113.315 290.35 112.861 292.774C112.406 295.197 111.851 297.241 111.195 298.907C110.538 300.522 109.831 301.987 109.074 303.299H127.626ZM143.496 303.299H145.01C146.323 303.299 147.383 302.971 148.191 302.315C148.999 301.658 149.579 300.851 149.932 299.891L163.941 261.273H165.456L180.222 300.649C180.474 301.204 180.853 301.785 181.357 302.39C181.913 302.996 182.67 303.299 183.629 303.299H186.658V304.813H180.6C179.086 304.813 177.95 304.435 177.193 303.677C176.486 302.92 175.855 301.785 175.3 300.27L171.892 291.183H154.703L150.311 303.299H155.233V304.813H143.496V303.299ZM171.514 290.048L163.184 267.709L155.082 290.048H171.514ZM190.846 305.571C189.332 305.571 188.121 305.167 187.212 304.359C186.354 303.552 185.925 302.567 185.925 301.406C185.925 300.447 186.227 299.639 186.833 298.983C187.49 298.326 188.322 297.998 189.332 297.998C190.089 297.998 190.72 298.251 191.225 298.755C191.73 299.261 191.982 299.892 191.982 300.649C191.982 300.951 191.932 301.255 191.831 301.557C191.781 301.86 191.73 302.138 191.68 302.39C191.68 302.643 191.705 302.87 191.755 303.072C191.856 303.223 192.058 303.299 192.361 303.299C192.916 303.299 193.572 302.946 194.33 302.239C195.138 301.481 195.895 299.992 196.602 297.771C197.308 295.5 197.914 292.294 198.419 288.154C198.924 283.964 199.176 278.411 199.176 271.495V266.573C199.176 265.867 198.924 265.261 198.419 264.756C197.914 264.201 197.283 263.923 196.526 263.923H193.876V262.408H226.058V263.923H221.136V303.299H226.058V304.813H211.292V303.299H213.942C214.699 303.299 215.33 303.047 215.835 302.542C216.34 302.037 216.593 301.406 216.593 300.649V266.573C216.593 265.816 216.34 265.185 215.835 264.68C215.33 264.175 214.699 263.923 213.942 263.923H200.691V271.495C200.691 276.291 200.565 280.481 200.312 284.065C200.059 287.599 199.706 290.628 199.252 293.152C198.798 295.676 198.242 297.746 197.586 299.362C196.98 300.926 196.299 302.188 195.542 303.147C194.835 304.056 194.078 304.687 193.27 305.041C192.462 305.394 191.654 305.571 190.846 305.571ZM232.906 303.299H235.556C236.313 303.299 236.944 303.047 237.449 302.542C237.954 302.037 238.206 301.406 238.206 300.649V266.573C238.206 265.816 237.954 265.185 237.449 264.68C236.944 264.175 236.313 263.923 235.556 263.923H232.906V262.408H247.671V263.923H242.75V297.998L267.738 267.331V266.573C267.738 265.816 267.486 265.185 266.981 264.68C266.476 264.175 265.845 263.923 265.088 263.923H262.438V262.408H277.204V263.923H272.282V303.299H277.204V304.813H262.438V303.299H265.088C265.845 303.299 266.476 303.047 266.981 302.542C267.486 302.037 267.738 301.406 267.738 300.649V269.602L242.75 300.27V303.299H247.671V304.813H232.906V303.299Z" fill="white"></path><defs><clipPath id="bgblur_0_2985_969_clip_path" transform="translate(0 0)"><path d="M340.167 376H1.93652V165.025L170.623 2L340.167 165.026V376Z"></path></clipPath></defs></svg> 