<svg width="121" height="134" viewBox="0 0 121 134" fill="none" xmlns="http://www.w3.org/2000/svg">
<g clip-path="url(#clip0_38_8)">
<mask id="mask0_38_8" style="mask-type:luminance" maskUnits="userSpaceOnUse" x="0" y="0" width="121" height="134">
<path d="M120.76 0H0V133.472H120.76V0Z" fill="white"/>
</mask>
<g mask="url(#mask0_38_8)">
<foreignObject x="-3.51422" y="-3.70562" width="127.817" height="140.664"><div xmlns="http://www.w3.org/1999/xhtml" style="backdrop-filter:blur(1.82px);clip-path:url(#bgblur_1_38_8_clip_path);height:100%;width:100%"></div></foreignObject><path data-figma-bg-blur-radius="3.63531" d="M60.6299 0.302734L120.496 57.8672L120.668 58.0322V133.323H0.121094V58.0322L0.291016 57.8672L59.8545 0.303711L60.2422 -0.0703125L60.6299 0.302734ZM1.23828 58.5059V132.206H119.551V58.5068L60.2432 1.48047L1.23828 58.5059Z" fill="white"/>
<path d="M120.688 59.5H120V133H1V59.5H0.311523L60.5 1L120.688 59.5ZM57.4512 94.3691L57.3916 94.5342L51.9355 109.572C51.829 109.862 51.6639 110.112 51.4365 110.321L51.335 110.409C51.0754 110.62 50.723 110.737 50.2539 110.737H46.5352V95.9014H48.4521V94.8115H35.4189V95.9014H36.7012C36.8978 95.9014 37.0586 95.9624 37.1953 96.0869L37.2617 96.1533C37.4119 96.3036 37.4834 96.4761 37.4834 96.6836V98.6006C37.4834 100.522 37.4239 102.146 37.3066 103.474V103.478C37.209 104.788 37.0724 105.91 36.8975 106.842C36.7228 107.773 36.5106 108.552 36.2627 109.182C36.0314 109.751 35.7825 110.269 35.5205 110.737H32.3223V111.628L32.3428 111.676L34.2598 116.1L34.3252 116.25H35.2314L35.1777 115.955L34.5879 112.711L34.5859 112.704C34.5193 112.387 34.5753 112.184 34.6992 112.044C34.7512 111.994 34.8556 111.937 35.0459 111.894C35.2374 111.85 35.4925 111.826 35.8164 111.826H45.9902C46.314 111.826 46.5693 111.85 46.7607 111.894C46.95 111.937 47.054 111.994 47.1064 112.044C47.2306 112.184 47.2874 112.386 47.2207 112.704L47.2188 112.711L46.6289 115.955L46.5762 116.25H47.4814L47.5469 116.1L49.4141 111.79V111.826H54.4854V110.737H52.6748L54.2041 106.518H60.5498L61.8154 109.892V109.893C62.0374 110.498 62.2973 110.976 62.6045 111.305L62.6104 111.311C62.9687 111.669 63.4864 111.826 64.1143 111.826H66.7236V111.739C67.1028 111.997 67.5675 112.121 68.1045 112.121C68.4567 112.121 68.8055 112.044 69.1484 111.895L69.1494 111.894C69.5115 111.735 69.836 111.457 70.1289 111.081L70.1299 111.082C70.4448 110.684 70.7211 110.167 70.9629 109.543L70.9619 109.542C71.2254 108.892 71.4459 108.07 71.624 107.079C71.803 106.085 71.942 104.895 72.041 103.514L72.1055 102.417C72.1611 101.277 72.1885 100.004 72.1885 98.6006V95.9014H77.0996C77.3326 95.9014 77.5135 95.9764 77.6602 96.123C77.8069 96.2698 77.8818 96.4508 77.8818 96.6836V109.955C77.8818 110.187 77.8068 110.367 77.6602 110.515C77.513 110.661 77.3321 110.737 77.0996 110.737H75.8174V111.826H82.0684V110.737H80.1514V95.9014H82.0684V94.8115H69.0352V95.9014H70.3164C70.5415 95.9014 70.7204 95.9809 70.8691 96.1445L70.877 96.1533C71.0271 96.3034 71.0986 96.4756 71.0986 96.6836V98.6006C71.0986 101.289 71.0006 103.441 70.8057 105.058C70.6099 106.664 70.3766 107.894 70.1084 108.758C69.8349 109.617 69.5552 110.142 69.291 110.391C69.0062 110.656 68.8111 110.737 68.6943 110.737C68.6909 110.737 68.6877 110.736 68.6846 110.736C68.6819 110.709 68.6801 110.68 68.6797 110.649C68.6968 110.561 68.7154 110.466 68.7324 110.363C68.775 110.229 68.7969 110.092 68.7969 109.955C68.7969 109.598 68.6753 109.287 68.4287 109.04L68.333 108.954C68.1038 108.766 67.8271 108.672 67.5146 108.672C67.0615 108.672 66.6721 108.822 66.3652 109.129L66.3584 109.136C66.0761 109.441 65.9385 109.819 65.9385 110.249C65.9385 110.42 65.9612 110.583 66.0029 110.737H65.2939C65.0176 110.737 64.8122 110.663 64.6572 110.526L64.5938 110.464C64.4137 110.246 64.2827 110.045 64.1973 109.858L58.4502 94.5322L58.3896 94.3691H57.4512ZM18.918 94.8115V95.9014H20.2002C20.4333 95.9014 20.6141 95.9764 20.7607 96.123C20.9074 96.2698 20.9824 96.4507 20.9824 96.6836V109.955C20.9824 110.187 20.9072 110.368 20.7607 110.515C20.6136 110.661 20.4328 110.737 20.2002 110.737H18.918V111.826H26.541C28.7083 111.826 30.3446 111.391 31.3945 110.467C32.4536 109.532 32.9833 108.322 32.9834 106.858C32.9834 106.326 32.9121 105.844 32.7637 105.419H32.7627C32.638 104.988 32.4615 104.611 32.2275 104.292C31.999 103.98 31.7373 103.717 31.4424 103.505H31.4434C31.1542 103.278 30.8523 103.091 30.5391 102.944C30.0682 102.71 29.5575 102.543 29.0088 102.439C29.3467 102.312 29.6694 102.156 29.9746 101.969L29.9775 101.967C30.4392 101.673 30.8534 101.277 31.2227 100.784C31.6184 100.257 31.8037 99.5701 31.8037 98.748C31.8037 98.2364 31.6865 97.7376 31.4551 97.2539C31.2205 96.7636 30.8697 96.3401 30.4092 95.9844C29.949 95.6289 29.3813 95.3523 28.7129 95.1494H28.7139C28.0345 94.9227 27.2596 94.8116 26.3936 94.8115H18.918ZM84.2354 94.8115V95.9014H85.5166C85.7495 95.9014 85.9305 95.9765 86.0771 96.123C86.2238 96.2696 86.2988 96.4505 86.2988 96.6836V109.955C86.2988 110.187 86.2245 110.368 86.0781 110.515C85.9309 110.661 85.7491 110.737 85.5166 110.737H84.2354V111.826H90.4854V110.737H88.5684V109.896L97.8008 98.5654V109.955C97.8008 110.187 97.7256 110.368 97.5791 110.515C97.432 110.661 97.251 110.737 97.0186 110.737H95.7363V111.826H101.987V110.737H100.07V95.9014H101.987V94.8115H95.7363V95.9014H97.0186C97.2515 95.9014 97.4324 95.9764 97.5791 96.123C97.7257 96.2696 97.8008 96.4505 97.8008 96.6836V96.8887L88.5684 108.219V95.9014H90.4854V94.8115H84.2354ZM26.541 103.127C27.8299 103.127 28.8017 103.485 29.4902 104.174L29.4941 104.179C30.2052 104.854 30.5664 105.738 30.5664 106.858C30.5663 108.061 30.202 108.995 29.4922 109.687L29.4902 109.689C28.8016 110.378 27.8298 110.737 26.541 110.737H23.252V103.127H26.541ZM43.4834 95.9014C43.7167 95.9014 43.8973 95.9766 44.0439 96.123C44.1905 96.2698 44.2656 96.4508 44.2656 96.6836V109.955C44.2656 110.187 44.1911 110.368 44.0449 110.515C43.8978 110.661 43.7164 110.737 43.4834 110.737H36.6816C36.9053 110.316 37.1174 109.86 37.3164 109.37L37.3174 109.367C37.5803 108.699 37.8003 107.887 37.9795 106.935V106.934C38.1583 105.979 38.2969 104.839 38.3955 103.518C38.5139 102.171 38.5732 100.531 38.5732 98.6006V95.9014H43.4834ZM60.2158 105.576H54.5322L57.334 97.8486L60.2158 105.576ZM26.3936 95.9014C27.2989 95.9015 28.0068 96.1859 28.543 96.7393L28.5459 96.7422C29.0988 97.2953 29.3867 98.0527 29.3867 99.043C29.3867 100.034 29.0987 100.79 28.5459 101.343L28.543 101.347C28.0079 101.9 27.2903 102.184 26.3633 102.184H23.252V95.9014H26.3936ZM32.4121 58.3242V59.4141H33.252C33.8889 59.4141 34.2878 59.5644 34.5146 59.8066L34.5205 59.8125C34.765 60.057 34.9189 60.5052 34.9189 61.2285V62.998C34.9189 65.5695 34.8501 67.7351 34.7129 69.4961C34.576 71.2581 34.3712 72.729 34.0996 73.9121L34.0986 73.915C33.8458 75.0824 33.5368 76.014 33.1768 76.7148L33.1748 76.7188C32.8489 77.3884 32.4914 77.9398 32.1064 78.3779H28.5781V79.2666L28.5967 79.3115L30.8086 84.7676L30.8721 84.9229H31.9229L31.877 84.6338L31.2871 80.9473L31.2861 80.9424C31.2516 80.7518 31.2426 80.5624 31.2588 80.373C31.2909 80.2045 31.3592 80.0512 31.4668 79.9102C31.5697 79.7935 31.7258 79.6874 31.9502 79.6006C32.1877 79.5156 32.5196 79.4678 32.957 79.4678H44.9004C45.3167 79.4678 45.6393 79.5153 45.8779 79.6006H45.8789C46.1246 79.6882 46.2869 79.7947 46.3877 79.9072C46.4944 80.0466 46.5532 80.196 46.5684 80.3613L46.5693 80.3721L46.5713 80.3828C46.6052 80.5694 46.6052 80.7554 46.5713 80.9424V80.9473L45.9814 84.6338L45.9346 84.9229H46.9863L47.0498 84.7676L49.2607 79.3115L49.2793 79.2666V78.3779H45.7402V59.4141H48.2471V58.3242H32.4121ZM59.3418 62.1582C58.1693 62.1582 57.0635 62.3803 56.0283 62.8271C54.9961 63.2722 54.0939 63.891 53.3232 64.6816C52.5534 65.4721 51.9469 66.4032 51.5029 67.4727C51.0566 68.5472 50.834 69.7112 50.834 70.96C50.834 72.2095 51.0567 73.3723 51.5029 74.4473C51.947 75.5167 52.5531 76.4486 53.3232 77.2393C54.0938 78.0298 54.9961 78.6478 56.0283 79.0928C57.0635 79.5395 58.1693 79.7627 59.3418 79.7627C60.5149 79.7627 61.6202 79.5395 62.6553 79.0928C63.6875 78.6478 64.5898 78.0298 65.3604 77.2393C66.1306 76.4486 66.7375 75.5167 67.1816 74.4473C67.6278 73.3724 67.8496 72.2094 67.8496 70.96C67.8496 69.8672 67.6794 68.8397 67.3379 67.8799L67.1816 67.4727C66.7375 66.4031 66.1304 65.4722 65.3604 64.6816C64.5897 63.891 63.6875 63.2722 62.6553 62.8271C61.6202 62.3804 60.5149 62.1582 59.3418 62.1582ZM70.001 62.4531V63.543H71.2832C71.5166 63.543 71.6971 63.6181 71.8438 63.7646C71.99 63.9111 72.0654 64.092 72.0654 64.3252V77.1533C72.0654 77.6122 71.9616 77.9098 71.7979 78.0918C71.6386 78.2688 71.3848 78.3779 70.9883 78.3779H70.001V79.4678H75.0723V78.3779H73.1553V64.6465L79.3252 75.0684L79.3984 75.1914H80.2764L80.3477 75.0645L86.2207 64.6846V77.5957C86.2207 77.7701 86.1786 77.9154 86.0957 78.0391L85.999 78.1562C85.8523 78.3029 85.6711 78.3779 85.4385 78.3779H84.1562V79.4678H90.4072V78.3779H88.4902V63.543H90.4072V62.4531H86.1768L86.1055 62.5801L80.4199 72.6719L74.4473 62.5752L74.375 62.4531H70.001ZM59.3418 63.1006C60.1078 63.1006 60.8575 63.277 61.5918 63.6348C62.3242 63.9915 62.975 64.5098 63.5439 65.1924L63.5459 65.1953C64.1127 65.8564 64.571 66.6738 64.916 67.6523C65.259 68.6235 65.4326 69.7254 65.4326 70.96C65.4326 72.1951 65.259 73.2968 64.916 74.2686C64.5712 75.246 64.1133 76.0734 63.5459 76.7549C62.9772 77.4184 62.3259 77.9271 61.5918 78.2852C60.8574 78.6429 60.1077 78.8203 59.3418 78.8203C58.5762 78.8203 57.8266 78.643 57.0918 78.2852H57.0928C56.4501 77.9718 55.8703 77.5432 55.3545 76.9961L55.1377 76.7549C54.5704 76.0734 54.1128 75.246 53.7676 74.2686C53.4246 73.2968 53.251 72.1951 53.251 70.96C53.251 69.7254 53.4246 68.6235 53.7676 67.6523C54.1131 66.6737 54.571 65.8564 55.1377 65.1953L55.1396 65.1924C55.7084 64.5098 56.3593 63.9915 57.0918 63.6348C57.8265 63.2769 58.5761 63.1006 59.3418 63.1006ZM42.2471 59.4141C42.5566 59.4142 42.8071 59.5176 43.0137 59.7246C43.2204 59.9313 43.3232 60.1816 43.3232 60.4912V77.3008C43.3232 77.6104 43.2204 77.8607 43.0137 78.0674C42.8069 78.2743 42.5564 78.3778 42.2471 78.3779H33.4678C33.7399 77.9956 33.9996 77.5442 34.2451 77.0244L34.2461 77.0215C34.5907 76.271 34.8909 75.2877 35.1484 74.0791C35.4068 72.8666 35.6137 71.3613 35.7715 69.5664C35.9297 67.7677 36.0088 65.5777 36.0088 62.998V59.4141H42.2471Z" fill="white"/>
</g>
</g>
<defs>
<clipPath id="bgblur_1_38_8_clip_path" transform="translate(3.51422 3.70562)"><path d="M60.6299 0.302734L120.496 57.8672L120.668 58.0322V133.323H0.121094V58.0322L0.291016 57.8672L59.8545 0.303711L60.2422 -0.0703125L60.6299 0.302734ZM1.23828 58.5059V132.206H119.551V58.5068L60.2432 1.48047L1.23828 58.5059Z"/>
</clipPath><clipPath id="clip0_38_8">
<rect width="121" height="134" fill="white"/>
</clipPath>
</defs>
</svg>
