<svg width="450" height="129" viewBox="0 0 450 129" fill="none" xmlns="http://www.w3.org/2000/svg">
<path d="M27.3789 73.8193H39.1119C39.1687 75.2587 39.8126 76.395 41.0437 77.2284C42.2747 78.0617 43.8656 78.4784 45.8164 78.4784C47.7861 78.4784 49.4433 78.0238 50.788 77.1147C52.1327 76.1867 52.805 74.8609 52.805 73.1375C52.805 72.0768 52.5399 71.1583 52.0096 70.3818C51.4793 69.5863 50.7406 68.9613 49.7937 68.5068C48.8467 68.0522 47.7482 67.825 46.4982 67.825H40.2198V59.8988H46.4982C48.3732 59.8988 49.8126 59.4632 50.8164 58.592C51.8391 57.7208 52.3505 56.6318 52.3505 55.325C52.3505 53.8477 51.8202 52.664 50.7596 51.7738C49.7179 50.8647 48.3069 50.4102 46.5266 50.4102C44.7274 50.4102 43.2312 50.8174 42.038 51.6318C40.8638 52.4272 40.2577 53.4689 40.2198 54.7568H28.5437C28.5816 52.1431 29.3675 49.8799 30.9016 47.967C32.4547 46.0541 34.538 44.5768 37.1516 43.5352C39.7842 42.4935 42.7293 41.9727 45.9869 41.9727C49.5475 41.9727 52.6156 42.4746 55.1914 43.4784C57.7861 44.4632 59.7747 45.8742 61.1573 47.7113C62.5588 49.5484 63.2596 51.7359 63.2596 54.2738C63.2596 56.5844 62.502 58.5162 60.9869 60.0693C59.4717 61.6223 57.3505 62.7303 54.6232 63.3931V63.8477C56.4225 63.9613 58.0513 64.4443 59.5096 65.2965C60.9679 66.1488 62.1327 67.3231 63.0039 68.8193C63.8751 70.2965 64.3107 72.0484 64.3107 74.075C64.3107 76.7833 63.5153 79.1034 61.9244 81.0352C60.3524 82.967 58.1744 84.4537 55.3903 85.4954C52.6251 86.5181 49.4528 87.0295 45.8732 87.0295C42.3884 87.0295 39.2634 86.5276 36.4982 85.5238C33.752 84.5011 31.5645 83.0049 29.9357 81.0352C28.3259 79.0655 27.4736 76.6602 27.3789 73.8193Z" fill="#5B82FF"/>
<path d="M91.6185 87.0295C87.1298 87.0295 83.2662 86.1204 80.0276 84.3022C76.8079 82.4651 74.3268 79.8704 72.5844 76.5181C70.8419 73.1469 69.9707 69.1602 69.9707 64.5579C69.9707 60.0693 70.8419 56.1299 72.5844 52.7397C74.3268 49.3496 76.7794 46.7075 79.9423 44.8136C83.1241 42.9196 86.8552 41.9727 91.1355 41.9727C94.0143 41.9727 96.6942 42.4367 99.1753 43.3647C101.676 44.2738 103.854 45.6469 105.71 47.484C107.585 49.3212 109.043 51.6318 110.085 54.4159C111.127 57.181 111.647 60.4196 111.647 64.1318V67.4556H74.8003V59.9556H100.255C100.255 58.2132 99.876 56.6696 99.1185 55.325C98.3609 53.9803 97.3098 52.9291 95.9651 52.1715C94.6393 51.395 93.0957 51.0068 91.3344 51.0068C89.4973 51.0068 87.8685 51.4329 86.448 52.2852C85.0465 53.1185 83.948 54.2454 83.1526 55.6659C82.3571 57.0674 81.9499 58.6299 81.931 60.3534V67.484C81.931 69.6431 82.3287 71.5087 83.1241 73.0806C83.9385 74.6526 85.0844 75.8647 86.5616 76.717C88.0389 77.5693 89.7908 77.9954 91.8173 77.9954C93.162 77.9954 94.3931 77.806 95.5105 77.4272C96.6279 77.0484 97.5844 76.4803 98.3798 75.7227C99.1753 74.9651 99.7813 74.0371 100.199 72.9386L111.392 73.6772C110.824 76.3666 109.659 78.7151 107.897 80.7227C106.155 82.7113 103.901 84.2643 101.136 85.3818C98.3893 86.4803 95.217 87.0295 91.6185 87.0295Z" fill="#5B82FF"/>
<path d="M145.341 72.7947L157.159 42.5391H166.363L149.346 86.1754H141.306L124.687 42.5391H133.863L145.341 72.7947ZM131.108 42.5391V86.1754H119.545V42.5391H131.108ZM160.17 86.1754V42.5391H171.591V86.1754H160.17Z" fill="#5B82FF"/>
<path d="M178.395 86.1754L178.338 76.5732H179.787C180.809 76.5732 181.69 76.3269 182.429 75.8345C183.186 75.3232 183.811 74.4993 184.304 73.3629C184.796 72.2266 185.184 70.7209 185.468 68.8459C185.752 66.9519 185.942 64.6224 186.037 61.8572L186.747 42.5391H219.929V86.1754H208.395V52.0561H197.627L196.946 65.38C196.775 69.0353 196.33 72.1792 195.61 74.8118C194.91 77.4444 193.934 79.6035 192.684 81.2891C191.434 82.9557 189.929 84.1868 188.167 84.9822C186.406 85.7777 184.36 86.1754 182.031 86.1754H178.395Z" fill="#5B82FF"/>
<path d="M254.879 86.1754V52.0277H246.697C244.481 52.0277 242.796 52.5391 241.64 53.5618C240.485 54.5845 239.917 55.7966 239.936 57.1982C239.917 58.6186 240.466 59.8213 241.583 60.8061C242.72 61.772 244.386 62.255 246.583 62.255H258.913V70.4368H246.583C242.852 70.4368 239.623 69.8686 236.896 68.7322C234.169 67.5959 232.066 66.0144 230.589 63.9879C229.112 61.9425 228.383 59.5656 228.402 56.8572C228.383 54.0163 229.112 51.5258 230.589 49.3856C232.066 47.2266 234.178 45.5504 236.924 44.3572C239.69 43.1451 242.947 42.5391 246.697 42.5391H266.157V86.1754H254.879ZM227.152 86.1754L239.282 63.4482H250.845L238.743 86.1754H227.152Z" fill="#5B82FF"/>
<path d="M282.635 86.9155C280.76 86.9155 279.15 86.2526 277.805 84.9268C276.479 83.5821 275.816 81.9723 275.816 80.0973C275.816 78.2412 276.479 76.6503 277.805 75.3246C279.15 73.9988 280.76 73.3359 282.635 73.3359C284.453 73.3359 286.044 73.9988 287.407 75.3246C288.771 76.6503 289.453 78.2412 289.453 80.0973C289.453 81.3473 289.131 82.4931 288.487 83.5348C287.862 84.5575 287.038 85.3814 286.015 86.0064C284.993 86.6124 283.866 86.9155 282.635 86.9155Z" fill="#5B82FF"/>
<path d="M291.18 52.0561V42.5391H330.725V52.0561H316.663V86.1754H305.128V52.0561H291.18Z" fill="#5B82FF"/>
<path d="M356.384 87.0295C351.895 87.0295 348.031 86.1204 344.793 84.3022C341.573 82.4651 339.092 79.8704 337.349 76.5181C335.607 73.1469 334.736 69.1602 334.736 64.5579C334.736 60.0693 335.607 56.1299 337.349 52.7397C339.092 49.3496 341.545 46.7075 344.707 44.8136C347.889 42.9196 351.62 41.9727 355.901 41.9727C358.779 41.9727 361.459 42.4367 363.94 43.3647C366.44 44.2738 368.618 45.6469 370.474 47.484C372.349 49.3212 373.808 51.6318 374.849 54.4159C375.891 57.181 376.412 60.4196 376.412 64.1318V67.4556H339.565V59.9556H365.02C365.02 58.2132 364.641 56.6696 363.884 55.325C363.126 53.9803 362.075 52.9291 360.73 52.1715C359.404 51.395 357.861 51.0068 356.099 51.0068C354.262 51.0068 352.634 51.4329 351.213 52.2852C349.812 53.1185 348.713 54.2454 347.918 55.6659C347.122 57.0674 346.715 58.6299 346.696 60.3534V67.484C346.696 69.6431 347.094 71.5087 347.889 73.0806C348.704 74.6526 349.849 75.8647 351.327 76.717C352.804 77.5693 354.556 77.9954 356.582 77.9954C357.927 77.9954 359.158 77.806 360.276 77.4272C361.393 77.0484 362.35 76.4803 363.145 75.7227C363.94 74.9651 364.546 74.0371 364.963 72.9386L376.156 73.6772C375.588 76.3666 374.423 78.7151 372.662 80.7227C370.92 82.7113 368.666 84.2643 365.901 85.3818C363.154 86.4803 359.982 87.0295 356.384 87.0295Z" fill="#5B82FF"/>
<path d="M393.643 42.5391L401.654 57.7947L409.865 42.5391H422.279L409.637 64.3572L422.62 86.1754H410.262L401.654 71.0902L393.189 86.1754H380.689L393.643 64.3572L381.143 42.5391H393.643Z" fill="#5B82FF"/>
</svg>
