<svg width="395" height="45" viewBox="0 0 395 45" fill="none" xmlns="http://www.w3.org/2000/svg">
<g clip-path="url(#clip0_2911_60)">
<path d="M0 31.8466H11.733C11.7898 33.286 12.4337 34.4223 13.6648 35.2557C14.8958 36.089 16.4867 36.5057 18.4375 36.5057C20.4072 36.5057 22.0644 36.0511 23.4091 35.142C24.7538 34.214 25.4261 32.8882 25.4261 31.1648C25.4261 30.1041 25.161 29.1856 24.6307 28.4091C24.1004 27.6136 23.3617 26.9886 22.4148 26.5341C21.4678 26.0795 20.3693 25.8523 19.1193 25.8523H12.8409V17.9261H19.1193C20.9943 17.9261 22.4337 17.4905 23.4375 16.6193C24.4602 15.7481 24.9716 14.6591 24.9716 13.3523C24.9716 11.875 24.4413 10.6913 23.3807 9.8011C22.339 8.892 20.928 8.4375 19.1477 8.4375C17.3485 8.4375 15.8523 8.8447 14.6591 9.6591C13.4849 10.4545 12.8788 11.4962 12.8409 12.7841H1.1648C1.2027 10.1704 1.9886 7.9072 3.5227 5.9943C5.0758 4.0814 7.1591 2.6041 9.7727 1.5625C12.4053 0.5208 15.3504 0 18.608 0C22.1686 0 25.2367 0.501903 27.8125 1.5057C30.4072 2.4905 32.3958 3.9015 33.7784 5.7386C35.1799 7.5757 35.8807 9.7632 35.8807 12.3011C35.8807 14.6117 35.1231 16.5435 33.608 18.0966C32.0928 19.6496 29.9716 20.7576 27.2443 21.4204V21.875C29.0436 21.9886 30.6724 22.4716 32.1307 23.3238C33.589 24.1761 34.7538 25.3504 35.625 26.8466C36.4962 28.3238 36.9318 30.0757 36.9318 32.1023C36.9318 34.8106 36.1364 37.1307 34.5455 39.0625C32.9735 40.9943 30.7955 42.481 28.0114 43.5227C25.2462 44.5454 22.0739 45.0568 18.4943 45.0568C15.0095 45.0568 11.8845 44.5549 9.1193 43.5511C6.3731 42.5284 4.1856 41.0322 2.5568 39.0625C0.946999 37.0928 0.0947 34.6875 0 31.8466Z" fill="#5B82FF"/>
<path d="M64.2396 45.0568C59.7509 45.0568 55.8873 44.1477 52.6487 42.3295C49.429 40.4924 46.9479 37.8977 45.2055 34.5454C43.463 31.1742 42.5918 27.1875 42.5918 22.5852C42.5918 18.0966 43.463 14.1572 45.2055 10.767C46.9479 7.3769 49.4005 4.7348 52.5634 2.8409C55.7452 0.9469 59.4763 0 63.7566 0C66.6354 0 69.3153 0.464002 71.7964 1.392C74.2966 2.3011 76.4746 3.6742 78.3306 5.5113C80.2056 7.3485 81.6636 9.6591 82.7056 12.4432C83.7476 15.2083 84.2676 18.4469 84.2676 22.1591V25.4829H47.4214V17.9829H72.8756C72.8756 16.2405 72.4971 14.6969 71.7396 13.3523C70.982 12.0076 69.9309 10.9564 68.5862 10.1988C67.2604 9.4223 65.7168 9.0341 63.9555 9.0341C62.1184 9.0341 60.4896 9.4602 59.0691 10.3125C57.6676 11.1458 56.5691 12.2727 55.7737 13.6932C54.9782 15.0947 54.571 16.6572 54.5521 18.3807V25.5113C54.5521 27.6704 54.9498 29.536 55.7452 31.1079C56.5596 32.6799 57.7055 33.892 59.1827 34.7443C60.66 35.5966 62.4119 36.0227 64.4384 36.0227C65.7831 36.0227 67.0142 35.8333 68.1316 35.4545C69.249 35.0757 70.2055 34.5076 71.0009 33.75C71.7964 32.9924 72.4024 32.0644 72.8196 30.9659L84.0126 31.7045C83.4446 34.3939 82.2796 36.7424 80.5176 38.75C78.7756 40.7386 76.5216 42.2916 73.7566 43.4091C71.0104 44.5076 67.8381 45.0568 64.2396 45.0568Z" fill="#5B82FF"/>
<path d="M117.962 30.822L129.78 0.566406H138.984L121.967 44.2027H113.927L97.308 0.566406H106.484L117.962 30.822ZM103.729 0.566406V44.2027H92.166V0.566406H103.729ZM132.791 44.2027V0.566406H144.212V44.2027H132.791Z" fill="#5B82FF"/>
<path d="M151.016 44.2027L150.959 34.6005H152.408C153.43 34.6005 154.311 34.3542 155.05 33.8618C155.807 33.3505 156.432 32.5266 156.925 31.3902C157.417 30.2539 157.805 28.7482 158.089 26.8732C158.373 24.9792 158.563 22.6497 158.658 19.8845L159.368 0.566406H192.55V44.2027H181.016V10.0834H170.248L169.567 23.4073C169.396 27.0626 168.951 30.2065 168.231 32.8391C167.531 35.4717 166.555 37.6308 165.305 39.3164C164.055 40.983 162.55 42.2141 160.788 43.0095C159.027 43.805 156.981 44.2027 154.652 44.2027H151.016Z" fill="#5B82FF"/>
<path d="M227.5 44.2027V10.055H219.318C217.102 10.055 215.417 10.5664 214.261 11.5891C213.106 12.6118 212.538 13.8239 212.557 15.2255C212.538 16.6459 213.087 17.8486 214.204 18.8334C215.341 19.7993 217.007 20.2823 219.204 20.2823H231.534V28.4641H219.204C215.473 28.4641 212.244 27.8959 209.517 26.7595C206.79 25.6232 204.687 24.0417 203.21 22.0152C201.733 19.9698 201.004 17.5929 201.023 14.8845C201.004 12.0436 201.733 9.5531 203.21 7.4129C204.687 5.2539 206.799 3.57771 209.545 2.38451C212.311 1.17241 215.568 0.566406 219.318 0.566406H238.778V44.2027H227.5ZM199.773 44.2027L211.903 21.4755H223.466L211.364 44.2027H199.773Z" fill="#5B82FF"/>
<path d="M255.257 44.9429C253.382 44.9429 251.771 44.28 250.426 42.9542C249.1 41.6095 248.438 39.9997 248.438 38.1247C248.438 36.2686 249.1 34.6777 250.426 33.352C251.771 32.0262 253.382 31.3633 255.257 31.3633C257.075 31.3633 258.666 32.0262 260.029 33.352C261.393 34.6777 262.074 36.2686 262.074 38.1247C262.074 39.3747 261.752 40.5205 261.108 41.5622C260.483 42.5849 259.66 43.4088 258.637 44.0338C257.615 44.6398 256.488 44.9429 255.257 44.9429Z" fill="#5B82FF"/>
<path d="M263.801 10.0834V0.566406H303.346V10.0834H289.284V44.2027H277.749V10.0834H263.801Z" fill="#5B82FF"/>
<path d="M329.005 45.0568C324.516 45.0568 320.652 44.1477 317.414 42.3295C314.194 40.4924 311.713 37.8977 309.97 34.5454C308.228 31.1742 307.357 27.1875 307.357 22.5852C307.357 18.0966 308.228 14.1572 309.97 10.767C311.713 7.3769 314.166 4.7348 317.328 2.8409C320.51 0.9469 324.241 0 328.522 0C331.4 0 334.08 0.464002 336.561 1.392C339.061 2.3011 341.239 3.6742 343.095 5.5113C344.97 7.3485 346.429 9.6591 347.47 12.4432C348.512 15.2083 349.033 18.4469 349.033 22.1591V25.4829H312.186V17.9829H337.641C337.641 16.2405 337.262 14.6969 336.505 13.3523C335.747 12.0076 334.696 10.9564 333.351 10.1988C332.025 9.4223 330.482 9.0341 328.72 9.0341C326.883 9.0341 325.255 9.4602 323.834 10.3125C322.433 11.1458 321.334 12.2727 320.539 13.6932C319.743 15.0947 319.336 16.6572 319.317 18.3807V25.5113C319.317 27.6704 319.715 29.536 320.51 31.1079C321.325 32.6799 322.47 33.892 323.948 34.7443C325.425 35.5966 327.177 36.0227 329.203 36.0227C330.548 36.0227 331.779 35.8333 332.897 35.4545C334.014 35.0757 334.971 34.5076 335.766 33.75C336.561 32.9924 337.167 32.0644 337.584 30.9659L348.777 31.7045C348.209 34.3939 347.044 36.7424 345.283 38.75C343.541 40.7386 341.287 42.2916 338.522 43.4091C335.775 44.5076 332.603 45.0568 329.005 45.0568Z" fill="#5B82FF"/>
<path d="M366.265 0.566406L374.276 15.822L382.487 0.566406H394.901L382.259 22.3845L395.242 44.2027H382.884L374.276 29.1175L365.811 44.2027H353.311L366.265 22.3845L353.765 0.566406H366.265Z" fill="#5B82FF"/>
</g>
<defs>
<clipPath id="clip0_2911_60">
<rect width="395" height="45" fill="white"/>
</clipPath>
</defs>
</svg>
