<svg width="840" height="840" viewBox="0 0 840 840" fill="none" xmlns="http://www.w3.org/2000/svg">
<path d="M420 825.5C643.951 825.5 825.5 643.951 825.5 420C825.5 196.049 643.951 14.5 420 14.5C196.049 14.5 14.5 196.049 14.5 420C14.5 643.951 196.049 825.5 420 825.5Z" fill="white"/>
<path d="M305.135 179H536.784L538.489 184.304C553.462 230.899 579.216 273.296 613.66 308.044L637.19 331.783H201L229.561 302.968C260.776 271.478 284.894 233.665 300.294 192.072L305.135 179Z" fill="black"/>
<path d="M638.384 661.284H202.193V331.783H638.384V661.284ZM365.7 486.591V661.199H474.749V486.591H365.7Z" fill="black"/>
</svg>
