<svg width="840" height="840" viewBox="0 0 840 840" fill="none" xmlns="http://www.w3.org/2000/svg">
<path d="M420 825.5C643.951 825.5 825.5 643.951 825.5 420C825.5 196.049 643.951 14.5 420 14.5C196.049 14.5 14.5 196.049 14.5 420C14.5 643.951 196.049 825.5 420 825.5Z" fill="white"/>
<path d="M419.5 493C304.901 493 212 399.875 212 285H627C627 399.875 534.099 493 419.5 493Z" fill="black"/>
<path d="M419.5 597C304.901 597 212 563.869 212 523H627C627 563.869 534.099 597 419.5 597Z" fill="black"/>
<path d="M507 469V407H330V469H507Z" fill="black"/>
</svg>
