<svg width="840" height="840" viewBox="0 0 840 840" fill="none" xmlns="http://www.w3.org/2000/svg">
<path d="M420 825.5C643.951 825.5 825.5 643.951 825.5 420C825.5 196.049 643.951 14.5 420 14.5C196.049 14.5 14.5 196.049 14.5 420C14.5 643.951 196.049 825.5 420 825.5Z" fill="white"/>
<path d="M470.83 611.763C470.83 640.06 447.889 663 419.592 663C391.294 663 368.355 640.06 368.354 611.763V609.322H470.83V611.763ZM500.108 591.756H339.076V542.958H500.108V591.756ZM419.592 176C507.18 176 578.184 248.533 578.185 338.008C578.185 391.188 553.1 438.384 514.359 467.922C505.883 474.384 500.153 484.078 500.108 494.729V525.391H339.076V494.855C339.076 484.155 333.334 474.41 324.824 467.922C286.084 438.384 261 391.188 261 338.008C261 248.533 332.004 176 419.592 176Z" fill="black"/>
</svg>
