<svg width="840" height="840" viewBox="0 0 840 840" fill="none" xmlns="http://www.w3.org/2000/svg">
<path d="M420 825.5C643.951 825.5 825.5 643.951 825.5 420C825.5 196.049 643.951 14.5 420 14.5C196.049 14.5 14.5 196.049 14.5 420C14.5 643.951 196.049 825.5 420 825.5Z" fill="white"/>
<path d="M644.5 347.5C644.5 425.096 581.596 488 504 488V207C581.596 207 644.5 269.904 644.5 347.5Z" fill="black"/>
<path d="M554 452H504V651H554V452Z" fill="black"/>
<path d="M359 207H309V651H359V207Z" fill="black"/>
<path d="M262 207H212V428H262V207Z" fill="black"/>
<path d="M433 477V427H212V477H433Z" fill="black"/>
<path d="M456 207H406V477H456V207Z" fill="black"/>
</svg>
