<svg width="840" height="840" viewBox="0 0 840 840" fill="none" xmlns="http://www.w3.org/2000/svg">
<path d="M420 825.5C643.951 825.5 825.5 643.951 825.5 420C825.5 196.049 643.951 14.5 420 14.5C196.049 14.5 14.5 196.049 14.5 420C14.5 643.951 196.049 825.5 420 825.5Z" fill="white"/>
<path fill-rule="evenodd" clip-rule="evenodd" d="M446 238V350.273L634 629H207L396 349.216V238L355 142H486L446 238ZM421 464C397.804 464 379 482.804 379 506C379 529.196 397.804 548 421 548C444.196 548 463 529.196 463 506C463 482.804 444.196 464 421 464Z" fill="black"/>
</svg>
